<svg width="183" height="43" viewBox="0 0 183 43" fill="none" xmlns="http://www.w3.org/2000/svg">
<g clip-path="url(#clip0_395_64)">
<path d="M41.2925 28.9763L44.4434 14.5102H50.6552C51.5262 14.4885 52.3899 14.6703 53.1749 15.0406C53.8488 15.3619 54.4098 15.8724 54.7865 16.5072C55.1647 17.1741 55.3558 17.9273 55.3403 18.6901C55.3285 19.6709 55.055 20.6316 54.547 21.4768C53.9963 22.4139 53.2039 23.1928 52.2493 23.7354C51.182 24.3438 49.9637 24.6509 48.7293 24.6228H46.7535L45.818 28.9665L41.2925 28.9763ZM48.9838 20.6359C49.29 20.6419 49.5931 20.5748 49.8669 20.4403C50.1086 20.3256 50.3164 20.1523 50.4706 19.9368C50.6054 19.7572 50.6803 19.5412 50.6852 19.3183C50.6859 19.2063 50.6604 19.0957 50.6106 18.9948C50.5609 18.894 50.4882 18.8056 50.3983 18.7366C50.195 18.5742 49.9395 18.4876 49.6773 18.4921H48.1006L47.6291 20.6237L48.9838 20.6359Z" fill="#E5DCC7"/>
<path d="M64.8427 28.9763H54.764L57.9149 14.5101H62.4453L60.2275 24.7352H65.7757L64.8427 28.9763Z" fill="#E5DCC7"/>
<path d="M81.0035 28.9763H76.4631L76.286 27.143H71.6607L70.6629 28.9763H65.8979L74.6519 14.4882H78.5711L81.0035 28.9763ZM75.2132 20.5748L73.6465 23.469H75.9167L75.6273 20.5748L75.5974 19.7926H75.555L75.2132 20.5748Z" fill="#E5DCC7"/>
<path d="M88.3504 28.9763H83.82L86.0652 18.6388H82.398L83.2911 14.5101H95.166L94.2729 18.6388H90.5956L88.3504 28.9763Z" fill="#E5DCC7"/>
<path d="M106.312 28.9763H101.772L101.592 27.143H96.9697L95.9718 28.9763H91.1994L99.9534 14.4882H103.873L106.312 28.9763ZM100.522 20.5748L98.9555 23.469H101.226L100.931 20.5748L100.899 19.7926H100.856L100.522 20.5748Z" fill="#E5DCC7"/>
<path d="M112.182 28.9763H107.655L110.803 14.5101H121.031L120.168 18.5141H114.473L113.974 20.7605H118.2L117.401 24.4981H113.16L112.182 28.9763Z" fill="#E5DCC7"/>
<path d="M123.159 28.5143C122.192 28.0346 121.398 27.2763 120.884 26.3412C120.334 25.2949 120.063 24.1296 120.096 22.9532C120.102 21.4749 120.505 20.0242 121.263 18.7463C122.031 17.4062 123.134 16.2797 124.469 15.4733C125.824 14.6386 127.396 14.204 128.997 14.2217C130.224 14.1911 131.44 14.4546 132.539 14.9892C133.511 15.4784 134.308 16.2457 134.825 17.1892C135.378 18.2468 135.65 19.4236 135.618 20.6114C135.611 22.0734 135.208 23.5074 134.45 24.767C133.676 26.0967 132.569 27.212 131.235 28.0083C129.874 28.8381 128.3 29.2706 126.697 29.2549C125.474 29.2898 124.261 29.0358 123.159 28.5143ZM129.166 24.5225C129.747 24.1823 130.226 23.6973 130.554 23.117C130.9 22.5065 131.077 21.8181 131.067 21.1199C131.067 20.2497 130.818 19.5848 130.337 19.1326C129.818 18.668 129.133 18.4237 128.431 18.453C127.766 18.4506 127.114 18.6309 126.55 18.9737C125.966 19.3231 125.487 19.8183 125.162 20.4086C124.814 21.0375 124.636 21.7437 124.646 22.4594C124.646 23.3101 124.888 23.9522 125.372 24.3856C125.897 24.8327 126.578 25.0647 127.273 25.0334C127.94 25.0365 128.595 24.8597 129.166 24.5225Z" fill="#E5DCC7"/>
<path d="M149.174 21.4034C148.642 22.2496 147.896 22.9468 147.009 23.4274L148.69 28.9763H143.835L142.658 24.5494C142.561 24.5494 142.408 24.5494 142.196 24.5494H141.428L140.463 28.9665H135.932L139.076 14.5004H145.39C146.209 14.4852 147.02 14.6576 147.76 15.0039C148.424 15.3185 148.983 15.8109 149.374 16.4241C149.766 17.0608 149.966 17.7928 149.953 18.5361C149.973 19.5445 149.703 20.5381 149.174 21.4034ZM142.735 18.5044L142.261 20.6872H143.648C143.934 20.6881 144.215 20.612 144.459 20.4672C144.699 20.3291 144.907 20.1425 145.068 19.9197C145.209 19.7413 145.29 19.5243 145.3 19.2988C145.306 19.1885 145.287 19.0783 145.244 18.9763C145.201 18.8743 145.135 18.7831 145.05 18.7097C144.876 18.572 144.658 18.4992 144.434 18.5044H142.735Z" fill="#E5DCC7"/>
<path d="M153.914 28.9763H149.351L154.48 14.5101H159.388L159.492 22.8603L163.234 14.5101H168.431L167.286 28.986H162.693L163.481 21.6528L160.276 28.986H156.324L156.366 21.6528L153.914 28.9763Z" fill="#E5DCC7"/>
<path d="M183 28.9763H178.462L178.282 27.143H173.67L172.672 28.9763H167.899L176.663 14.4882H180.583L183 28.9763ZM177.21 20.5748L175.646 23.469H177.916L177.621 20.5748L177.589 19.7926H177.547L177.21 20.5748Z" fill="#E5DCC7"/>
<path d="M36.6948 21.5012C36.698 19.1616 36.1182 16.8566 35.0059 14.7864L32.8704 16.8788C32.1768 17.5609 31.2672 17.9918 30.2909 18.101H30.2584H30.1487C29.8814 18.1243 29.6126 18.1243 29.3454 18.101C28.9991 18.0667 28.6582 17.992 28.33 17.8786C29.2233 19.3966 29.523 21.181 29.1733 22.8994C28.8235 24.6178 27.8482 26.153 26.429 27.2192C25.0098 28.2853 23.2435 28.8096 21.459 28.6944C19.6746 28.5792 17.9938 27.8323 16.7296 26.593C16.1276 26.0005 15.3336 25.6323 14.4843 25.5516C14.2595 25.5309 14.0331 25.5309 13.8083 25.5516L13.6885 25.5663C13.1221 25.6315 12.579 25.8248 12.1019 26.131C11.894 26.267 11.7002 26.4226 11.5231 26.5954L9.23546 28.8345L1.08023 36.8229C0.416099 37.5062 0.0509114 38.4168 0.0626525 39.3603C0.0743936 40.3038 0.462133 41.2055 1.14307 41.8727C1.824 42.5399 2.74417 42.9198 3.70708 42.9313C4.67 42.9428 5.59936 42.585 6.29669 41.9342L14.4519 33.9434C16.6917 35.2372 19.2406 35.928 21.8405 35.9458C24.4405 35.9636 26.999 35.3078 29.257 34.0447C31.5149 32.7817 33.3921 30.9563 34.6982 28.7535C36.0044 26.5507 36.6932 24.0488 36.6948 21.5012Z" fill="#E5DCC7"/>
<path d="M11.0142 26.1237C11.225 25.9183 11.4556 25.7333 11.7027 25.5712C12.2719 25.2071 12.9189 24.9763 13.5937 24.8966H13.6261H13.7384C14.0057 24.8733 14.2745 24.8733 14.5417 24.8966C14.8869 24.9313 15.2268 25.0051 15.5546 25.1166C14.6632 23.5986 14.365 21.8151 14.7155 20.0978C15.0659 18.3805 16.0412 16.8465 17.4598 15.7811C18.8783 14.7158 20.6436 14.1917 22.427 14.3064C24.2105 14.4211 25.8907 15.1667 27.155 16.4046C27.7569 16.9972 28.5509 17.3655 29.4003 17.4459C29.6243 17.4667 29.8498 17.4667 30.0738 17.4459L30.1961 17.4313C31.0154 17.3363 31.7782 16.9738 32.3615 16.4022L34.6392 14.1704L42.7919 6.182C43.456 5.49872 43.8212 4.58809 43.8095 3.64459C43.7977 2.70108 43.41 1.79946 42.7291 1.13226C42.0481 0.465047 41.128 0.0851378 40.165 0.0736333C39.2021 0.0621289 38.2728 0.41994 37.5754 1.07068L29.4227 9.06153C26.6594 7.46422 23.4399 6.79321 20.2524 7.15019C17.0648 7.50718 14.0829 8.8727 11.7587 11.0398C9.4345 13.2069 7.89472 16.0573 7.37276 19.1591C6.85079 22.2609 7.37511 25.4448 8.86624 28.2283L11.0142 26.1237Z" fill="#E55935"/>
</g>
<defs>
<clipPath id="clip0_395_64">
<rect width="183" height="43" fill="white"/>
</clipPath>
</defs>
</svg>
